<svg xmlns="http://www.w3.org/2000/svg" width="48" height="49" viewBox="0 0 48 49" fill="none">
  <g clip-path="url(#clip0_2447_4927)">
    <path d="M15.255 3.68348L2.745 16.1935C0.99 17.9485 0 20.3335 0 22.8235V45.1885C0 47.2585 1.68 48.9385 3.75 48.9385H26.115C28.605 48.9385 30.9825 47.9485 32.745 46.1935L45.255 33.6835C47.01 31.9285 48 29.5435 48 27.0535V4.68848C48 2.61848 46.32 0.938477 44.25 0.938477H21.885C19.395 0.938477 17.0175 1.92848 15.255 3.68348Z" fill="url(#paint0_linear_2447_4927)"></path>
    <rect x="10" y="12" width="24" height="30" rx="2" fill="#FFFFFF" style="filter: drop-shadow(2px 2px 3px rgba(0, 0, 0, 0.2));"></rect>
    <rect x="16" y="18" width="16" height="2" rx="1" fill="#E0E0E0"></rect>
    <rect x="16" y="24" width="12" height="2" rx="1" fill="#E0E0E0"></rect>
    <rect x="16" y="30" width="18" height="2" rx="1" fill="#E0E0E0"></rect>
    <rect x="16" y="36" width="10" height="2" rx="1" fill="#E0E0E0"></rect>
  </g>
  <defs>
    <linearGradient id="paint0_linear_2447_4927" x1="0.6375" y1="47.9785" x2="46.965" y2="2.29598" gradientUnits="userSpaceOnUse">
      <stop stop-color="#FF9419"></stop>
      <stop offset="0.43" stop-color="#FF021D"></stop>
      <stop offset="0.99" stop-color="#E600FF"></stop>
    </linearGradient>
    <clipPath id="clip0_2447_4927">
      <rect width="48" height="48" fill="white" transform="translate(0 0.938477)"></rect>
    </clipPath>
  </defs>
</svg>
